<svg enable-background="new 0 0 64 64" height="512" viewBox="0 0 64 64" width="512" xmlns="http://www.w3.org/2000/svg"><g id="pause"><g><g fill="#b2b2f9"><path d="m28 21h-4c-.552 0-1 .448-1 1v20c0 .552.448 1 1 1h4c.552 0 1-.448 1-1v-20c0-.552-.448-1-1-1z"/><path d="m40 21h-4c-.552 0-1 .448-1 1v20c0 .552.448 1 1 1h4c.552 0 1-.448 1-1v-20c0-.552-.448-1-1-1z"/></g><g fill="#6161ff"><path d="m32 6c-14.336 0-26 11.664-26 26s11.664 26 26 26 26-11.664 26-26-11.664-26-26-26zm0 50c-13.233 0-24-10.767-24-24s10.767-24 24-24 24 10.767 24 24-10.767 24-24 24z"/><path d="m28 21h-4c-.552 0-1 .448-1 1v20c0 .552.448 1 1 1h4c.552 0 1-.448 1-1v-20c0-.552-.448-1-1-1zm-1 20h-2v-18h2z"/><path d="m40 21h-4c-.552 0-1 .448-1 1v20c0 .552.448 1 1 1h4c.552 0 1-.448 1-1v-20c0-.552-.448-1-1-1zm-1 20h-2v-18h2z"/></g></g></g></svg>