<svg enable-background="new 0 0 64 64" height="512" viewBox="0 0 64 64" width="512" xmlns="http://www.w3.org/2000/svg"><g id="play"><g><path d="m45.496 31.042-20.257-11.575c-.311-.177-.691-.176-1 .004s-.498.511-.496.868l.104 23.33c.001.357.194.687.504.864.154.088.325.132.496.132.174 0 .348-.045.504-.136l20.153-11.755c.309-.18.498-.511.496-.868s-.194-.687-.504-.864z" fill="#b2b2f9"/><g fill="#6161ff"><path d="m32 6c-14.336 0-26 11.664-26 26s11.664 26 26 26 26-11.664 26-26-11.664-26-26-26zm0 50c-13.233 0-24-10.767-24-24s10.767-24 24-24 24 10.767 24 24-10.767 24-24 24z"/><path d="m45.496 31.042-20.257-11.575c-.311-.177-.691-.176-1 .004s-.498.511-.496.868l.104 23.33c.001.357.194.687.504.864.154.088.325.132.496.132.174 0 .348-.045.504-.136l20.153-11.755c.309-.18.498-.511.496-.868s-.194-.687-.504-.864zm-19.657 10.887-.088-19.866 17.249 9.856z"/></g></g></g></svg>