<svg height="384pt" viewBox="-32 0 384 384" width="384pt" xmlns="http://www.w3.org/2000/svg"><path d="m16 384h288c8.832031 0 16-7.167969 16-16v-272c0-4.238281-1.6875-8.3125-4.6875-11.3125l-80-80c-3-3-7.074219-4.6875-11.3125-4.6875h-208c-8.832031 0-16 7.167969-16 16v352c0 8.832031 7.167969 16 16 16zm201.375-352 70.625 70.632812v249.367188h-256v-256h64c8.832031 0 16-7.167969 16-16s-7.167969-16-16-16h-64v-32zm0 0"/><path d="m64 224c0 52.9375 43.0625 96 96 96s96-43.0625 96-96c0-20.96875-6.832031-40.320312-18.28125-56.128906-.589844-1-1.285156-1.960938-2.125-2.839844-17.585938-22.496094-44.898438-37.03125-75.59375-37.03125-52.9375 0-96 43.0625-96 96zm96-64c15.960938 0 30.542969 5.910156 41.761719 15.609375l-41.761719 41.757813-12.6875-12.679688c-6.242188-6.246094-16.382812-6.246094-22.625 0-6.246094 6.25-6.246094 16.375 0 22.625l24 24c3.121094 3.128906 7.214844 4.6875 11.3125 4.6875s8.183594-1.558594 11.3125-4.6875l48.871094-48.871094c2.425781 6.75 3.816406 13.984375 3.816406 21.558594 0 35.289062-28.710938 64-64 64s-64-28.710938-64-64 28.710938-64 64-64zm0 0"/></svg>