<svg id="Layer" enable-background="new 0 0 64 64" height="50" viewBox="8 8 48 48" width="50" xmlns="http://www.w3.org/2000/svg"><path d="m48 8h-8c-1.104 0-2 .896-2 2s.896 2 2 2h8c2.206 0 4 1.794 4 4v32c0 2.206-1.794 4-4 4h-32c-2.206 0-4-1.794-4-4v-32c0-2.206 1.794-4 4-4h8c1.104 0 2-.896 2-2s-.896-2-2-2h-8c-4.411 0-8 3.589-8 8v32c0 4.411 3.589 8 8 8h32c4.411 0 8-3.589 8-8v-32c0-4.411-3.589-8-8-8z"/><path d="m41.433 21.604c-.77-.791-2.037-.808-2.828-.037l-6.623 6.414-6.586-6.414c-.791-.771-2.059-.754-2.828.037-.771.791-.754 2.058.037 2.828l6.567 6.396c.782.782 1.809 1.172 2.835 1.172 1.019 0 2.034-.385 2.803-1.153l6.586-6.414c.791-.771.807-2.037.037-2.829z"/><path d="m38.604 32.567-6.623 6.414-6.586-6.414c-.791-.771-2.059-.754-2.828.037-.771.791-.754 2.058.037 2.828l6.567 6.396c.783.782 1.81 1.172 2.836 1.172 1.019 0 2.034-.385 2.803-1.153l6.586-6.414c.791-.771.808-2.037.037-2.828-.77-.792-2.037-.809-2.829-.038z"/></svg>