<svg id="Layer_1" enable-background="new 0 0 128 128" height="512" viewBox="0 0 128 128" width="512" xmlns="http://www.w3.org/2000/svg"><path id="Next" d="m20 104c-.66 0-1.316-.162-1.918-.488-1.281-.701-2.082-2.049-2.082-3.512v-72c0-1.463.801-2.811 2.082-3.512 1.289-.701 2.848-.645 4.082.146l56 36c1.145.737 1.836 2.005 1.836 3.366s-.691 2.629-1.836 3.365l-56 36c-.656.422-1.41.635-2.164.635zm4-68.674v57.348l44.602-28.674zm80 68.674h-8c-4.41 0-8-3.588-8-8v-64c0-4.412 3.59-8 8-8h8c4.41 0 8 3.588 8 8v64c0 4.412-3.59 8-8 8zm-8-72v64h8v-64z"/></svg>