<svg id="Layer_1" enable-background="new 0 0 128 128" height="512" viewBox="0 0 128 128" width="512" xmlns="http://www.w3.org/2000/svg"><path id="Previous" d="m108 104c-.754 0-1.506-.213-2.162-.635l-56-36c-1.147-.736-1.838-2.004-1.838-3.365s.691-2.629 1.838-3.365l56-36c1.227-.791 2.793-.848 4.078-.146s2.084 2.048 2.084 3.511v72c0 1.463-.799 2.811-2.084 3.512-.598.326-1.258.488-1.916.488zm-48.604-40 44.604 28.674v-57.348zm-27.396 40h-8c-4.412 0-8-3.588-8-8v-64c0-4.412 3.588-8 8-8h8c4.412 0 8 3.588 8 8v64c0 4.412-3.588 8-8 8zm-8-72v64h8.006l-.006-64z"/></svg>