<svg height="384pt" viewBox="-32 0 384 384" width="384pt" xmlns="http://www.w3.org/2000/svg"><path d="m16 384h288c8.832031 0 16-7.167969 16-16v-272c0-4.238281-1.6875-8.3125-4.6875-11.3125l-80-80c-3-3-7.074219-4.6875-11.3125-4.6875h-208c-8.832031 0-16 7.167969-16 16v352c0 8.832031 7.167969 16 16 16zm201.367188-352 70.632812 70.632812v249.367188h-256v-256h64c8.832031 0 16-7.167969 16-16s-7.167969-16-16-16h-64v-32zm0 0"/><path d="m64 224c0 52.9375 43.0625 96 96 96s96-43.0625 96-96-43.0625-96-96-96-96 43.0625-96 96zm96-64c35.289062 0 64 28.710938 64 64s-28.710938 64-64 64-64-28.710938-64-64 28.710938-64 64-64zm0 0"/><path d="m128 240h64c8.832031 0 16-7.167969 16-16s-7.167969-16-16-16h-64c-8.832031 0-16 7.167969-16 16s7.167969 16 16 16zm0 0"/></svg>