<svg id="Layer" enable-background="new 0 0 64 64" height="50" viewBox="8 8 48 48" width="50" xmlns="http://www.w3.org/2000/svg"><path d="m48 8h-32c-4.411 0-8 3.589-8 8v32c0 4.411 3.589 8 8 8h8c1.104 0 2-.896 2-2s-.896-2-2-2h-8c-2.206 0-4-1.794-4-4v-32c0-2.206 1.794-4 4-4h32c2.206 0 4 1.794 4 4v32c0 2.206-1.794 4-4 4h-8c-1.104 0-2 .896-2 2s.896 2 2 2h8c4.411 0 8-3.589 8-8v-32c0-4.411-3.589-8-8-8z"/><path d="m22.567 42.396c.77.791 2.037.809 2.828.037l6.623-6.414 6.586 6.414c.39.379.893.567 1.396.567.521 0 1.041-.202 1.433-.604.771-.791.754-2.058-.037-2.828l-6.567-6.396c-.756-.756-1.76-1.172-2.829-1.172s-2.073.416-2.81 1.153l-6.586 6.414c-.791.771-.808 2.037-.037 2.829z"/><path d="m25.396 31.433 6.623-6.414 6.586 6.414c.389.379.892.567 1.395.567.521 0 1.041-.202 1.433-.604.771-.791.754-2.058-.037-2.828l-6.567-6.396c-.756-.756-1.76-1.172-2.829-1.172s-2.073.416-2.81 1.153l-6.586 6.414c-.791.771-.808 2.037-.037 2.828.77.792 2.037.808 2.829.038z"/></svg>