<svg id="Layer" enable-background="new 0 0 64 64" height="50" viewBox="9 8.5 48 47" width="50" xmlns="http://www.w3.org/2000/svg"><path d="m49 8h-32c-4.411 0-8 3.589-8 8v32c0 4.411 3.589 8 8 8h8c1.104 0 2-.896 2-2s-.896-2-2-2h-8c-2.206 0-4-1.794-4-4v-32c0-2.206 1.794-4 4-4h32c2.206 0 4 1.794 4 4v32c0 2.206-1.794 4-4 4h-8c-1.104 0-2 .896-2 2s.896 2 2 2h8c4.411 0 8-3.589 8-8v-32c0-4.411-3.589-8-8-8z"/><path d="m42.43 36.394c.771-.791.754-2.058-.037-2.828l-6.567-6.396c-.755-.756-1.76-1.172-2.829-1.172s-2.073.416-2.81 1.153l-6.586 6.414c-.791.771-.808 2.037-.037 2.828.392.402.912.604 1.433.604.503 0 1.007-.188 1.396-.567l6.624-6.414 6.585 6.414c.791.771 2.057.755 2.828-.036z"/></svg>